<svg xmlns="http://www.w3.org/2000/svg" viewBox="0 0 100 100" width="100" height="100">
  <defs>
    <linearGradient id="honeyGrad" x1="0%" y1="0%" x2="100%" y2="100%">
      <stop offset="0%" stop-color="#FFD54F" />
      <stop offset="50%" stop-color="#F4B400" />
      <stop offset="100%" stop-color="#B7791F" />
    </linearGradient>
  </defs>
  <!-- Jar Lid -->
  <path d="M 28 22 Q 50 18 72 22 L 75 28 L 25 28 Z" fill="#3E2723" />
  <rect x="33" y="16" width="34" height="6" rx="3" fill="#6B8E23" />
  <!-- Jar Body -->
  <path d="M 26 30 C 20 45 22 75 32 84 C 40 90 60 90 68 84 C 78 75 80 45 74 30 Z" fill="url(#honeyGrad)" />
  <!-- Honey dripping / shine -->
  <path d="M 38 30 C 38 48 44 54 48 54 C 52 54 52 42 58 42 C 64 42 64 50 68 46 C 70 44 72 38 72 30 Z" fill="#FFE580" opacity="0.6" />
  <!-- Label Badge -->
  <circle cx="50" cy="62" r="14" fill="#FFFDF5" />
  <text x="50" y="67" font-size="14" font-weight="bold" text-anchor="middle" fill="#B7791F">🍯</text>
</svg>
